<?xml version="1.0" encoding="UTF-8"?>
<svg xmlns="http://www.w3.org/2000/svg" xmlns:xlink="http://www.w3.org/1999/xlink" stroke-dasharray="none" shape-rendering="auto" font-family="'Dialog'" width="583" text-rendering="auto" fill-opacity="1" contentScriptType="text/ecmascript" color-interpolation="auto" color-rendering="auto" preserveAspectRatio="xMidYMid meet" font-size="12" viewBox="0 0 583 370" fill="black" stroke="black" image-rendering="auto" stroke-miterlimit="10" zoomAndPan="magnify" version="1.0" stroke-linecap="square" stroke-linejoin="miter" contentStyleType="text/css" font-style="normal" height="370" stroke-width="1" stroke-dashoffset="0" font-weight="normal" stroke-opacity="1">
  <!--Generated by the Batik Graphics2D SVG Generator-->
  <defs id="genericDefs" />
  <g>
    <defs id="defs1">
      <clipPath clipPathUnits="userSpaceOnUse" id="clipPath1">
        <path d="M45 9 L117 9 L117 41 L45 41 L45 9 Z" />
      </clipPath>
      <clipPath clipPathUnits="userSpaceOnUse" id="clipPath2">
        <path d="M45 9 L120 9 L120 41 L45 41 L45 9 Z" />
      </clipPath>
      <clipPath clipPathUnits="userSpaceOnUse" id="clipPath3">
        <path d="M75 39 L87 39 L87 361 L75 361 L75 39 Z" />
      </clipPath>
      <clipPath clipPathUnits="userSpaceOnUse" id="clipPath4">
        <path d="M422 9 L574 9 L574 61 L422 61 L422 9 Z" />
      </clipPath>
      <clipPath clipPathUnits="userSpaceOnUse" id="clipPath5">
        <path d="M422 9 L577 9 L577 61 L422 61 L422 9 Z" />
      </clipPath>
      <clipPath clipPathUnits="userSpaceOnUse" id="clipPath6">
        <path d="M422 9 L576 9 L576 61 L422 61 L422 9 Z" />
      </clipPath>
      <clipPath clipPathUnits="userSpaceOnUse" id="clipPath7">
        <path d="M492 59 L504 59 L504 361 L492 361 L492 59 Z" />
      </clipPath>
      <clipPath clipPathUnits="userSpaceOnUse" id="clipPath8">
        <path d="M487 89 L509 89 L509 131 L487 131 L487 89 Z" />
      </clipPath>
      <clipPath clipPathUnits="userSpaceOnUse" id="clipPath9">
        <path d="M508 89 L546 89 L546 108 L508 108 L508 89 Z" />
      </clipPath>
      <clipPath clipPathUnits="userSpaceOnUse" id="clipPath10">
        <path d="M487 209 L509 209 L509 251 L487 251 L487 209 Z" />
      </clipPath>
      <clipPath clipPathUnits="userSpaceOnUse" id="clipPath11">
        <path d="M508 209 L546 209 L546 228 L508 228 L508 209 Z" />
      </clipPath>
      <clipPath clipPathUnits="userSpaceOnUse" id="clipPath12">
        <path d="M487 149 L509 149 L509 191 L487 191 L487 149 Z" />
      </clipPath>
      <clipPath clipPathUnits="userSpaceOnUse" id="clipPath13">
        <path d="M508 149 L537 149 L537 168 L508 168 L508 149 Z" />
      </clipPath>
      <clipPath clipPathUnits="userSpaceOnUse" id="clipPath14">
        <path d="M487 269 L509 269 L509 311 L487 311 L487 269 Z" />
      </clipPath>
      <clipPath clipPathUnits="userSpaceOnUse" id="clipPath15">
        <path d="M508 269 L537 269 L537 288 L508 288 L508 269 Z" />
      </clipPath>
      <clipPath clipPathUnits="userSpaceOnUse" id="clipPath16">
        <path d="M-1 -1 L584 -1 L584 371 L-1 371 L-1 -1 Z" />
      </clipPath>
      <clipPath clipPathUnits="userSpaceOnUse" id="clipPath17">
        <path d="M23 70 L548 70 L548 89 L23 89 L23 70 Z" />
      </clipPath>
      <clipPath clipPathUnits="userSpaceOnUse" id="clipPath18">
        <path d="M79 84 L91 84 L91 95 L79 95 L79 84 Z" />
      </clipPath>
      <clipPath clipPathUnits="userSpaceOnUse" id="clipPath19">
        <path d="M221 190 L350 190 L350 209 L221 209 L221 190 Z" />
      </clipPath>
      <clipPath clipPathUnits="userSpaceOnUse" id="clipPath20">
        <path d="M79 204 L91 204 L91 215 L79 215 L79 204 Z" />
      </clipPath>
      <clipPath clipPathUnits="userSpaceOnUse" id="clipPath21">
        <path d="M188 130 L383 130 L383 149 L188 149 L188 130 Z" />
      </clipPath>
      <clipPath clipPathUnits="userSpaceOnUse" id="clipPath22">
        <path d="M479 144 L491 144 L491 155 L479 155 L479 144 Z" />
      </clipPath>
      <clipPath clipPathUnits="userSpaceOnUse" id="clipPath23">
        <path d="M181 250 L390 250 L390 269 L181 269 L181 250 Z" />
      </clipPath>
      <clipPath clipPathUnits="userSpaceOnUse" id="clipPath24">
        <path d="M479 264 L491 264 L491 275 L479 275 L479 264 Z" />
      </clipPath>
    </defs>
    <g font-size="15" fill="rgb(238,201,142)" font-family="'Segoe UI'" stroke-linejoin="round" stroke="rgb(238,201,142)" stroke-width="0" stroke-miterlimit="0">
      <rect x="46" y="10" clip-path="url(#clipPath1)" width="70" height="30" stroke="none" />
    </g>
    <g stroke-width="0.1" font-size="15" font-family="'Segoe UI'" stroke-linecap="butt">
      <rect x="46" y="10" clip-path="url(#clipPath1)" fill="none" width="69" height="29" />
      <text x="60" font-size="13" y="30" clip-path="url(#clipPath2)" stroke="none" xml:space="preserve">System</text>
      <line clip-path="url(#clipPath3)" fill="none" x1="80" x2="80" y1="40" y2="360" stroke-dasharray="10,10" stroke-width="1.1" />
    </g>
    <g stroke-linecap="butt" font-size="15" fill="rgb(255,245,181)" font-family="'Segoe UI'" stroke-dasharray="10,10" stroke="rgb(255,245,181)" stroke-width="1.1">
      <rect x="423" y="10" clip-path="url(#clipPath4)" width="150" height="50" stroke="none" />
    </g>
    <g stroke-width="0.1" font-size="15" font-family="'Segoe UI'" stroke-linecap="butt">
      <rect x="423" y="10" clip-path="url(#clipPath4)" fill="none" width="149" height="49" />
      <text x="482" font-size="13" y="32" clip-path="url(#clipPath5)" stroke="none" xml:space="preserve">Steve</text>
      <text x="450" font-size="13" y="49" clip-path="url(#clipPath6)" stroke="none" xml:space="preserve">: actCoordinator</text>
      <line clip-path="url(#clipPath7)" fill="none" x1="497" x2="497" y1="60" y2="360" stroke-dasharray="10,10" stroke-width="1.1" />
    </g>
    <g stroke-linecap="butt" font-size="15" fill="rgb(39,76,114)" font-family="'Segoe UI'" stroke-dasharray="10,10" stroke="rgb(39,76,114)" stroke-width="1.1">
      <rect x="488" y="90" clip-path="url(#clipPath8)" width="20" height="40" stroke="none" />
      <rect x="488" y="90" clip-path="url(#clipPath8)" fill="none" width="19" stroke-dasharray="none" height="39" stroke-width="0.1" />
    </g>
    <g stroke-width="0.1" font-size="13" font-family="'Segoe UI'" stroke-linecap="butt">
      <text xml:space="preserve" x="509" y="104" clip-path="url(#clipPath9)" stroke="none">out01</text>
      <rect x="488" y="210" clip-path="url(#clipPath10)" fill="rgb(39,76,114)" width="20" height="40" stroke="none" />
      <rect x="488" y="210" clip-path="url(#clipPath10)" fill="none" width="19" height="39" stroke="rgb(39,76,114)" />
      <text xml:space="preserve" x="509" y="224" clip-path="url(#clipPath11)" stroke="none">out02</text>
      <rect x="488" y="150" clip-path="url(#clipPath12)" fill="rgb(194,239,255)" width="20" height="40" stroke="none" />
      <rect x="488" y="150" clip-path="url(#clipPath12)" fill="none" width="19" height="39" stroke="rgb(194,239,255)" />
      <text xml:space="preserve" x="509" y="164" clip-path="url(#clipPath13)" stroke="none">in01</text>
      <rect x="488" y="270" clip-path="url(#clipPath14)" fill="rgb(194,239,255)" width="20" height="40" stroke="none" />
      <rect x="488" y="270" clip-path="url(#clipPath14)" fill="none" width="19" height="39" stroke="rgb(194,239,255)" />
      <text xml:space="preserve" x="509" y="284" clip-path="url(#clipPath15)" stroke="none">in02</text>
      <line clip-path="url(#clipPath16)" fill="none" x1="488" x2="81" y1="89" y2="89" stroke="rgb(136,136,136)" stroke-width="2.1" />
      <text x="24" y="85" clip-path="url(#clipPath17)" stroke="none" stroke-width="2.1" xml:space="preserve">oeAddMedia("{ID=1, name='News', category=CAR_CLASH, email='accident@news.com'}")</text>
      <line clip-path="url(#clipPath18)" fill="none" x1="88" x2="81" y1="86" y2="89" stroke="rgb(136,136,136)" stroke-width="2.1" />
      <line clip-path="url(#clipPath18)" fill="none" x1="81" x2="88" y1="89" y2="92" stroke="rgb(136,136,136)" stroke-width="2.1" />
      <line clip-path="url(#clipPath16)" fill="none" x1="488" x2="81" y1="209" y2="209" stroke="rgb(136,136,136)" stroke-width="2.1" />
      <text x="222" y="205" clip-path="url(#clipPath19)" stroke="none" stroke-width="2.1" xml:space="preserve">oeRemoveMedia("1")</text>
      <line clip-path="url(#clipPath20)" fill="none" x1="88" x2="81" y1="206" y2="209" stroke="rgb(136,136,136)" stroke-width="2.1" />
      <line clip-path="url(#clipPath20)" fill="none" x1="81" x2="88" y1="209" y2="212" stroke="rgb(136,136,136)" stroke-width="2.1" />
    </g>
    <g stroke-linecap="butt" font-size="13" fill="rgb(136,136,136)" font-family="'Segoe UI'" stroke-dasharray="5,5" stroke="rgb(136,136,136)" stroke-width="2.1">
      <line clip-path="url(#clipPath16)" fill="none" x1="488" x2="81" y1="149" y2="149" />
      <text x="189" y="145" clip-path="url(#clipPath21)" fill="black" stroke="none" xml:space="preserve">ieMessage(Media News added!)</text>
      <line clip-path="url(#clipPath22)" fill="none" x1="481" x2="488" y1="152" y2="149" stroke-dasharray="none" />
      <line clip-path="url(#clipPath22)" fill="none" x1="488" x2="481" y1="149" y2="146" stroke-dasharray="none" />
      <line clip-path="url(#clipPath16)" fill="none" x1="488" x2="81" y1="269" y2="269" />
      <text x="182" y="265" clip-path="url(#clipPath23)" fill="black" stroke="none" xml:space="preserve">ieMessage(Media News removed!)</text>
      <line clip-path="url(#clipPath24)" fill="none" x1="481" x2="488" y1="272" y2="269" stroke-dasharray="none" />
      <line clip-path="url(#clipPath24)" fill="none" x1="488" x2="481" y1="269" y2="266" stroke-dasharray="none" />
    </g>
  </g>
</svg>

