<?xml version="1.0" encoding="UTF-8"?>
<svg xmlns="http://www.w3.org/2000/svg" xmlns:xlink="http://www.w3.org/1999/xlink" stroke-dasharray="none" shape-rendering="auto" font-family="'Dialog'" width="564" text-rendering="auto" fill-opacity="1" contentScriptType="text/ecmascript" color-interpolation="auto" color-rendering="auto" preserveAspectRatio="xMidYMid meet" font-size="12" viewBox="0 0 564 1112" fill="black" stroke="black" image-rendering="auto" stroke-miterlimit="10" zoomAndPan="magnify" version="1.0" stroke-linecap="square" stroke-linejoin="miter" contentStyleType="text/css" font-style="normal" height="1112" stroke-width="1" stroke-dashoffset="0" font-weight="normal" stroke-opacity="1">
  <!--Generated by the Batik Graphics2D SVG Generator-->
  <defs id="genericDefs" />
  <g>
    <defs id="defs1">
      <clipPath clipPathUnits="userSpaceOnUse" id="clipPath1">
        <path d="M9 9 L105 9 L105 46 L9 46 L9 9 Z" />
      </clipPath>
      <clipPath clipPathUnits="userSpaceOnUse" id="clipPath2">
        <path d="M9 9 L108 9 L108 46 L9 46 L9 9 Z" />
      </clipPath>
      <clipPath clipPathUnits="userSpaceOnUse" id="clipPath3">
        <path d="M51 44 L63 44 L63 1103 L51 1103 L51 44 Z" />
      </clipPath>
      <clipPath clipPathUnits="userSpaceOnUse" id="clipPath4">
        <path d="M326 9 L555 9 L555 68 L326 68 L326 9 Z" />
      </clipPath>
      <clipPath clipPathUnits="userSpaceOnUse" id="clipPath5">
        <path d="M326 9 L558 9 L558 68 L326 68 L326 9 Z" />
      </clipPath>
      <clipPath clipPathUnits="userSpaceOnUse" id="clipPath6">
        <path d="M326 9 L557 9 L557 68 L326 68 L326 9 Z" />
      </clipPath>
      <clipPath clipPathUnits="userSpaceOnUse" id="clipPath7">
        <path d="M434 66 L446 66 L446 1103 L434 1103 L434 66 Z" />
      </clipPath>
      <clipPath clipPathUnits="userSpaceOnUse" id="clipPath8">
        <path d="M429 96 L451 96 L451 138 L429 138 L429 96 Z" />
      </clipPath>
      <clipPath clipPathUnits="userSpaceOnUse" id="clipPath9">
        <path d="M450 96 L488 96 L488 115 L450 115 L450 96 Z" />
      </clipPath>
      <clipPath clipPathUnits="userSpaceOnUse" id="clipPath10">
        <path d="M429 186 L451 186 L451 228 L429 228 L429 186 Z" />
      </clipPath>
      <clipPath clipPathUnits="userSpaceOnUse" id="clipPath11">
        <path d="M450 186 L488 186 L488 205 L450 205 L450 186 Z" />
      </clipPath>
      <clipPath clipPathUnits="userSpaceOnUse" id="clipPath12">
        <path d="M429 276 L451 276 L451 318 L429 318 L429 276 Z" />
      </clipPath>
      <clipPath clipPathUnits="userSpaceOnUse" id="clipPath13">
        <path d="M450 276 L488 276 L488 295 L450 295 L450 276 Z" />
      </clipPath>
      <clipPath clipPathUnits="userSpaceOnUse" id="clipPath14">
        <path d="M429 366 L451 366 L451 408 L429 408 L429 366 Z" />
      </clipPath>
      <clipPath clipPathUnits="userSpaceOnUse" id="clipPath15">
        <path d="M450 366 L488 366 L488 385 L450 385 L450 366 Z" />
      </clipPath>
      <clipPath clipPathUnits="userSpaceOnUse" id="clipPath16">
        <path d="M429 456 L451 456 L451 498 L429 498 L429 456 Z" />
      </clipPath>
      <clipPath clipPathUnits="userSpaceOnUse" id="clipPath17">
        <path d="M450 456 L488 456 L488 475 L450 475 L450 456 Z" />
      </clipPath>
      <clipPath clipPathUnits="userSpaceOnUse" id="clipPath18">
        <path d="M429 546 L451 546 L451 588 L429 588 L429 546 Z" />
      </clipPath>
      <clipPath clipPathUnits="userSpaceOnUse" id="clipPath19">
        <path d="M450 546 L488 546 L488 565 L450 565 L450 546 Z" />
      </clipPath>
      <clipPath clipPathUnits="userSpaceOnUse" id="clipPath20">
        <path d="M429 636 L451 636 L451 678 L429 678 L429 636 Z" />
      </clipPath>
      <clipPath clipPathUnits="userSpaceOnUse" id="clipPath21">
        <path d="M450 636 L488 636 L488 655 L450 655 L450 636 Z" />
      </clipPath>
      <clipPath clipPathUnits="userSpaceOnUse" id="clipPath22">
        <path d="M429 727 L451 727 L451 769 L429 769 L429 727 Z" />
      </clipPath>
      <clipPath clipPathUnits="userSpaceOnUse" id="clipPath23">
        <path d="M450 727 L488 727 L488 746 L450 746 L450 727 Z" />
      </clipPath>
      <clipPath clipPathUnits="userSpaceOnUse" id="clipPath24">
        <path d="M429 141 L451 141 L451 183 L429 183 L429 141 Z" />
      </clipPath>
      <clipPath clipPathUnits="userSpaceOnUse" id="clipPath25">
        <path d="M450 141 L479 141 L479 160 L450 160 L450 141 Z" />
      </clipPath>
      <clipPath clipPathUnits="userSpaceOnUse" id="clipPath26">
        <path d="M429 231 L451 231 L451 273 L429 273 L429 231 Z" />
      </clipPath>
      <clipPath clipPathUnits="userSpaceOnUse" id="clipPath27">
        <path d="M450 231 L479 231 L479 250 L450 250 L450 231 Z" />
      </clipPath>
      <clipPath clipPathUnits="userSpaceOnUse" id="clipPath28">
        <path d="M429 321 L451 321 L451 363 L429 363 L429 321 Z" />
      </clipPath>
      <clipPath clipPathUnits="userSpaceOnUse" id="clipPath29">
        <path d="M450 321 L479 321 L479 340 L450 340 L450 321 Z" />
      </clipPath>
      <clipPath clipPathUnits="userSpaceOnUse" id="clipPath30">
        <path d="M429 411 L451 411 L451 453 L429 453 L429 411 Z" />
      </clipPath>
      <clipPath clipPathUnits="userSpaceOnUse" id="clipPath31">
        <path d="M450 411 L479 411 L479 430 L450 430 L450 411 Z" />
      </clipPath>
      <clipPath clipPathUnits="userSpaceOnUse" id="clipPath32">
        <path d="M429 501 L451 501 L451 543 L429 543 L429 501 Z" />
      </clipPath>
      <clipPath clipPathUnits="userSpaceOnUse" id="clipPath33">
        <path d="M450 501 L479 501 L479 520 L450 520 L450 501 Z" />
      </clipPath>
      <clipPath clipPathUnits="userSpaceOnUse" id="clipPath34">
        <path d="M429 591 L451 591 L451 633 L429 633 L429 591 Z" />
      </clipPath>
      <clipPath clipPathUnits="userSpaceOnUse" id="clipPath35">
        <path d="M450 591 L479 591 L479 610 L450 610 L450 591 Z" />
      </clipPath>
      <clipPath clipPathUnits="userSpaceOnUse" id="clipPath36">
        <path d="M429 681 L451 681 L451 723 L429 723 L429 681 Z" />
      </clipPath>
      <clipPath clipPathUnits="userSpaceOnUse" id="clipPath37">
        <path d="M450 681 L479 681 L479 700 L450 700 L450 681 Z" />
      </clipPath>
      <clipPath clipPathUnits="userSpaceOnUse" id="clipPath38">
        <path d="M429 772 L451 772 L451 814 L429 814 L429 772 Z" />
      </clipPath>
      <clipPath clipPathUnits="userSpaceOnUse" id="clipPath39">
        <path d="M450 772 L479 772 L479 791 L450 791 L450 772 Z" />
      </clipPath>
      <clipPath clipPathUnits="userSpaceOnUse" id="clipPath40">
        <path d="M-1 -1 L565 -1 L565 1113 L-1 1113 L-1 -1 Z" />
      </clipPath>
      <clipPath clipPathUnits="userSpaceOnUse" id="clipPath41">
        <path d="M175 78 L314 78 L314 97 L175 97 L175 78 Z" />
      </clipPath>
      <clipPath clipPathUnits="userSpaceOnUse" id="clipPath42">
        <path d="M55 92 L67 92 L67 103 L55 103 L55 92 Z" />
      </clipPath>
      <clipPath clipPathUnits="userSpaceOnUse" id="clipPath43">
        <path d="M186 168 L303 168 L303 187 L186 187 L186 168 Z" />
      </clipPath>
      <clipPath clipPathUnits="userSpaceOnUse" id="clipPath44">
        <path d="M55 182 L67 182 L67 193 L55 193 L55 182 Z" />
      </clipPath>
      <clipPath clipPathUnits="userSpaceOnUse" id="clipPath45">
        <path d="M155 258 L334 258 L334 277 L155 277 L155 258 Z" />
      </clipPath>
      <clipPath clipPathUnits="userSpaceOnUse" id="clipPath46">
        <path d="M55 272 L67 272 L67 283 L55 283 L55 272 Z" />
      </clipPath>
      <clipPath clipPathUnits="userSpaceOnUse" id="clipPath47">
        <path d="M66 348 L422 348 L422 367 L66 367 L66 348 Z" />
      </clipPath>
      <clipPath clipPathUnits="userSpaceOnUse" id="clipPath48">
        <path d="M55 362 L67 362 L67 373 L55 373 L55 362 Z" />
      </clipPath>
      <clipPath clipPathUnits="userSpaceOnUse" id="clipPath49">
        <path d="M184 438 L305 438 L305 457 L184 457 L184 438 Z" />
      </clipPath>
      <clipPath clipPathUnits="userSpaceOnUse" id="clipPath50">
        <path d="M55 452 L67 452 L67 463 L55 463 L55 452 Z" />
      </clipPath>
      <clipPath clipPathUnits="userSpaceOnUse" id="clipPath51">
        <path d="M182 528 L308 528 L308 547 L182 547 L182 528 Z" />
      </clipPath>
      <clipPath clipPathUnits="userSpaceOnUse" id="clipPath52">
        <path d="M55 542 L67 542 L67 553 L55 553 L55 542 Z" />
      </clipPath>
      <clipPath clipPathUnits="userSpaceOnUse" id="clipPath53">
        <path d="M191 618 L299 618 L299 637 L191 637 L191 618 Z" />
      </clipPath>
      <clipPath clipPathUnits="userSpaceOnUse" id="clipPath54">
        <path d="M55 632 L67 632 L67 643 L55 643 L55 632 Z" />
      </clipPath>
      <clipPath clipPathUnits="userSpaceOnUse" id="clipPath55">
        <path d="M191 709 L298 709 L298 728 L191 728 L191 709 Z" />
      </clipPath>
      <clipPath clipPathUnits="userSpaceOnUse" id="clipPath56">
        <path d="M55 723 L67 723 L67 734 L55 734 L55 723 Z" />
      </clipPath>
      <clipPath clipPathUnits="userSpaceOnUse" id="clipPath57">
        <path d="M85 123 L404 123 L404 142 L85 142 L85 123 Z" />
      </clipPath>
      <clipPath clipPathUnits="userSpaceOnUse" id="clipPath58">
        <path d="M421 137 L433 137 L433 148 L421 148 L421 137 Z" />
      </clipPath>
      <clipPath clipPathUnits="userSpaceOnUse" id="clipPath59">
        <path d="M107 213 L382 213 L382 232 L107 232 L107 213 Z" />
      </clipPath>
      <clipPath clipPathUnits="userSpaceOnUse" id="clipPath60">
        <path d="M421 227 L433 227 L433 238 L421 238 L421 227 Z" />
      </clipPath>
      <clipPath clipPathUnits="userSpaceOnUse" id="clipPath61">
        <path d="M104 303 L386 303 L386 322 L104 322 L104 303 Z" />
      </clipPath>
      <clipPath clipPathUnits="userSpaceOnUse" id="clipPath62">
        <path d="M421 317 L433 317 L433 328 L421 328 L421 317 Z" />
      </clipPath>
      <clipPath clipPathUnits="userSpaceOnUse" id="clipPath63">
        <path d="M94 393 L396 393 L396 412 L94 412 L94 393 Z" />
      </clipPath>
      <clipPath clipPathUnits="userSpaceOnUse" id="clipPath64">
        <path d="M421 407 L433 407 L433 418 L421 418 L421 407 Z" />
      </clipPath>
      <clipPath clipPathUnits="userSpaceOnUse" id="clipPath65">
        <path d="M90 483 L399 483 L399 502 L90 502 L90 483 Z" />
      </clipPath>
      <clipPath clipPathUnits="userSpaceOnUse" id="clipPath66">
        <path d="M421 497 L433 497 L433 508 L421 508 L421 497 Z" />
      </clipPath>
      <clipPath clipPathUnits="userSpaceOnUse" id="clipPath67">
        <path d="M120 573 L369 573 L369 592 L120 592 L120 573 Z" />
      </clipPath>
      <clipPath clipPathUnits="userSpaceOnUse" id="clipPath68">
        <path d="M421 587 L433 587 L433 598 L421 598 L421 587 Z" />
      </clipPath>
      <clipPath clipPathUnits="userSpaceOnUse" id="clipPath69">
        <path d="M125 663 L364 663 L364 682 L125 682 L125 663 Z" />
      </clipPath>
      <clipPath clipPathUnits="userSpaceOnUse" id="clipPath70">
        <path d="M421 677 L433 677 L433 688 L421 688 L421 677 Z" />
      </clipPath>
      <clipPath clipPathUnits="userSpaceOnUse" id="clipPath71">
        <path d="M136 754 L352 754 L352 773 L136 773 L136 754 Z" />
      </clipPath>
      <clipPath clipPathUnits="userSpaceOnUse" id="clipPath72">
        <path d="M421 768 L433 768 L433 779 L421 779 L421 768 Z" />
      </clipPath>
    </defs>
    <g font-size="15" fill="rgb(238,201,142)" font-family="'Segoe UI'" stroke-linejoin="round" stroke="rgb(238,201,142)" stroke-width="0" stroke-miterlimit="0">
      <rect x="10" y="10" clip-path="url(#clipPath1)" width="94" height="35" stroke="none" />
    </g>
    <g stroke-width="0.1" font-size="15" font-family="'Segoe UI'" stroke-linecap="butt">
      <rect x="10" y="10" clip-path="url(#clipPath1)" fill="none" width="93" height="34" />
      <text x="36" font-size="13" y="33" clip-path="url(#clipPath2)" stroke="none" xml:space="preserve">System</text>
      <line clip-path="url(#clipPath3)" fill="none" x1="56" x2="56" y1="45" y2="1102" stroke-dasharray="10,10" stroke-width="1.1" />
    </g>
    <g stroke-linecap="butt" font-size="15" fill="rgb(255,245,181)" font-family="'Segoe UI'" stroke-dasharray="10,10" stroke="rgb(255,245,181)" stroke-width="1.1">
      <rect x="327" y="10" clip-path="url(#clipPath4)" width="227" height="57" stroke="none" />
    </g>
    <g stroke-width="0.1" font-size="15" font-family="'Segoe UI'" stroke-linecap="butt">
      <rect x="327" y="10" clip-path="url(#clipPath4)" fill="none" width="226" height="56" />
      <text x="425" font-size="13" y="35" clip-path="url(#clipPath5)" stroke="none" xml:space="preserve">Steve</text>
      <text x="393" font-size="13" y="52" clip-path="url(#clipPath6)" stroke="none" xml:space="preserve">: actCoordinator</text>
      <line clip-path="url(#clipPath7)" fill="none" x1="439" x2="439" y1="67" y2="1102" stroke-dasharray="10,10" stroke-width="1.1" />
    </g>
    <g stroke-linecap="butt" font-size="15" fill="rgb(39,76,114)" font-family="'Segoe UI'" stroke-dasharray="10,10" stroke="rgb(39,76,114)" stroke-width="1.1">
      <rect x="430" y="97" clip-path="url(#clipPath8)" width="20" height="40" stroke="none" />
      <rect x="430" y="97" clip-path="url(#clipPath8)" fill="none" width="19" stroke-dasharray="none" height="39" stroke-width="0.1" />
    </g>
    <g stroke-width="0.1" font-size="13" font-family="'Segoe UI'" stroke-linecap="butt">
      <text xml:space="preserve" x="451" y="111" clip-path="url(#clipPath9)" stroke="none">out01</text>
      <rect x="430" y="187" clip-path="url(#clipPath10)" fill="rgb(39,76,114)" width="20" height="40" stroke="none" />
      <rect x="430" y="187" clip-path="url(#clipPath10)" fill="none" width="19" height="39" stroke="rgb(39,76,114)" />
      <text xml:space="preserve" x="451" y="201" clip-path="url(#clipPath11)" stroke="none">out02</text>
      <rect x="430" y="277" clip-path="url(#clipPath12)" fill="rgb(39,76,114)" width="20" height="40" stroke="none" />
      <rect x="430" y="277" clip-path="url(#clipPath12)" fill="none" width="19" height="39" stroke="rgb(39,76,114)" />
      <text xml:space="preserve" x="451" y="291" clip-path="url(#clipPath13)" stroke="none">out03</text>
      <rect x="430" y="367" clip-path="url(#clipPath14)" fill="rgb(39,76,114)" width="20" height="40" stroke="none" />
      <rect x="430" y="367" clip-path="url(#clipPath14)" fill="none" width="19" height="39" stroke="rgb(39,76,114)" />
      <text xml:space="preserve" x="451" y="381" clip-path="url(#clipPath15)" stroke="none">out04</text>
      <rect x="430" y="457" clip-path="url(#clipPath16)" fill="rgb(39,76,114)" width="20" height="40" stroke="none" />
      <rect x="430" y="457" clip-path="url(#clipPath16)" fill="none" width="19" height="39" stroke="rgb(39,76,114)" />
      <text xml:space="preserve" x="451" y="471" clip-path="url(#clipPath17)" stroke="none">out05</text>
      <rect x="430" y="547" clip-path="url(#clipPath18)" fill="rgb(39,76,114)" width="20" height="40" stroke="none" />
      <rect x="430" y="547" clip-path="url(#clipPath18)" fill="none" width="19" height="39" stroke="rgb(39,76,114)" />
      <text xml:space="preserve" x="451" y="561" clip-path="url(#clipPath19)" stroke="none">out06</text>
      <rect x="430" y="637" clip-path="url(#clipPath20)" fill="rgb(39,76,114)" width="20" height="40" stroke="none" />
      <rect x="430" y="637" clip-path="url(#clipPath20)" fill="none" width="19" height="39" stroke="rgb(39,76,114)" />
      <text xml:space="preserve" x="451" y="651" clip-path="url(#clipPath21)" stroke="none">out07</text>
      <rect x="430" y="728" clip-path="url(#clipPath22)" fill="rgb(39,76,114)" width="20" height="40" stroke="none" />
      <rect x="430" y="728" clip-path="url(#clipPath22)" fill="none" width="19" height="39" stroke="rgb(39,76,114)" />
      <text xml:space="preserve" x="451" y="742" clip-path="url(#clipPath23)" stroke="none">out08</text>
      <rect x="430" y="142" clip-path="url(#clipPath24)" fill="rgb(194,239,255)" width="20" height="40" stroke="none" />
      <rect x="430" y="142" clip-path="url(#clipPath24)" fill="none" width="19" height="39" stroke="rgb(194,239,255)" />
      <text xml:space="preserve" x="451" y="156" clip-path="url(#clipPath25)" stroke="none">in01</text>
      <rect x="430" y="232" clip-path="url(#clipPath26)" fill="rgb(194,239,255)" width="20" height="40" stroke="none" />
      <rect x="430" y="232" clip-path="url(#clipPath26)" fill="none" width="19" height="39" stroke="rgb(194,239,255)" />
      <text xml:space="preserve" x="451" y="246" clip-path="url(#clipPath27)" stroke="none">in02</text>
      <rect x="430" y="322" clip-path="url(#clipPath28)" fill="rgb(194,239,255)" width="20" height="40" stroke="none" />
      <rect x="430" y="322" clip-path="url(#clipPath28)" fill="none" width="19" height="39" stroke="rgb(194,239,255)" />
      <text xml:space="preserve" x="451" y="336" clip-path="url(#clipPath29)" stroke="none">in03</text>
      <rect x="430" y="412" clip-path="url(#clipPath30)" fill="rgb(194,239,255)" width="20" height="40" stroke="none" />
      <rect x="430" y="412" clip-path="url(#clipPath30)" fill="none" width="19" height="39" stroke="rgb(194,239,255)" />
      <text xml:space="preserve" x="451" y="426" clip-path="url(#clipPath31)" stroke="none">in04</text>
      <rect x="430" y="502" clip-path="url(#clipPath32)" fill="rgb(194,239,255)" width="20" height="40" stroke="none" />
      <rect x="430" y="502" clip-path="url(#clipPath32)" fill="none" width="19" height="39" stroke="rgb(194,239,255)" />
      <text xml:space="preserve" x="451" y="516" clip-path="url(#clipPath33)" stroke="none">in05</text>
      <rect x="430" y="592" clip-path="url(#clipPath34)" fill="rgb(194,239,255)" width="20" height="40" stroke="none" />
      <rect x="430" y="592" clip-path="url(#clipPath34)" fill="none" width="19" height="39" stroke="rgb(194,239,255)" />
      <text xml:space="preserve" x="451" y="606" clip-path="url(#clipPath35)" stroke="none">in06</text>
      <rect x="430" y="682" clip-path="url(#clipPath36)" fill="rgb(194,239,255)" width="20" height="40" stroke="none" />
      <rect x="430" y="682" clip-path="url(#clipPath36)" fill="none" width="19" height="39" stroke="rgb(194,239,255)" />
      <text xml:space="preserve" x="451" y="696" clip-path="url(#clipPath37)" stroke="none">in07</text>
      <rect x="430" y="773" clip-path="url(#clipPath38)" fill="rgb(194,239,255)" width="20" height="40" stroke="none" />
      <rect x="430" y="773" clip-path="url(#clipPath38)" fill="none" width="19" height="39" stroke="rgb(194,239,255)" />
      <text xml:space="preserve" x="451" y="787" clip-path="url(#clipPath39)" stroke="none">in08</text>
      <line clip-path="url(#clipPath40)" fill="none" x1="430" x2="57" y1="97" y2="97" stroke="rgb(136,136,136)" stroke-width="2.1" />
      <text x="176" y="93" clip-path="url(#clipPath41)" stroke="none" stroke-width="2.1" xml:space="preserve">oeSetCrisisHandler("1")</text>
      <line clip-path="url(#clipPath42)" fill="none" x1="64" x2="57" y1="94" y2="97" stroke="rgb(136,136,136)" stroke-width="2.1" />
      <line clip-path="url(#clipPath42)" fill="none" x1="57" x2="64" y1="97" y2="100" stroke="rgb(136,136,136)" stroke-width="2.1" />
      <line clip-path="url(#clipPath40)" fill="none" x1="430" x2="57" y1="187" y2="187" stroke="rgb(136,136,136)" stroke-width="2.1" />
      <text x="187" y="183" clip-path="url(#clipPath43)" stroke="none" stroke-width="2.1" xml:space="preserve">oeValidateAlert("1")</text>
      <line clip-path="url(#clipPath44)" fill="none" x1="64" x2="57" y1="184" y2="187" stroke="rgb(136,136,136)" stroke-width="2.1" />
      <line clip-path="url(#clipPath44)" fill="none" x1="57" x2="64" y1="187" y2="190" stroke="rgb(136,136,136)" stroke-width="2.1" />
      <line clip-path="url(#clipPath40)" fill="none" x1="430" x2="57" y1="277" y2="277" stroke="rgb(136,136,136)" stroke-width="2.1" />
      <text x="156" y="273" clip-path="url(#clipPath45)" stroke="none" stroke-width="2.1" xml:space="preserve">oeSetCrisisStatus("1","solved")</text>
      <line clip-path="url(#clipPath46)" fill="none" x1="64" x2="57" y1="274" y2="277" stroke="rgb(136,136,136)" stroke-width="2.1" />
      <line clip-path="url(#clipPath46)" fill="none" x1="57" x2="64" y1="277" y2="280" stroke="rgb(136,136,136)" stroke-width="2.1" />
      <line clip-path="url(#clipPath40)" fill="none" x1="430" x2="57" y1="367" y2="367" stroke="rgb(136,136,136)" stroke-width="2.1" />
      <text x="67" y="363" clip-path="url(#clipPath47)" stroke="none" stroke-width="2.1" xml:space="preserve">oeReportOnCrisis("1","car clash, 2 victims sent to hospital...")</text>
      <line clip-path="url(#clipPath48)" fill="none" x1="64" x2="57" y1="364" y2="367" stroke="rgb(136,136,136)" stroke-width="2.1" />
      <line clip-path="url(#clipPath48)" fill="none" x1="57" x2="64" y1="367" y2="370" stroke="rgb(136,136,136)" stroke-width="2.1" />
      <line clip-path="url(#clipPath40)" fill="none" x1="430" x2="57" y1="457" y2="457" stroke="rgb(136,136,136)" stroke-width="2.1" />
      <text x="185" y="453" clip-path="url(#clipPath49)" stroke="none" stroke-width="2.1" xml:space="preserve">oeShareByCrisis("1")</text>
      <line clip-path="url(#clipPath50)" fill="none" x1="64" x2="57" y1="454" y2="457" stroke="rgb(136,136,136)" stroke-width="2.1" />
      <line clip-path="url(#clipPath50)" fill="none" x1="57" x2="64" y1="457" y2="460" stroke="rgb(136,136,136)" stroke-width="2.1" />
      <line clip-path="url(#clipPath40)" fill="none" x1="430" x2="57" y1="547" y2="547" stroke="rgb(136,136,136)" stroke-width="2.1" />
      <text x="183" y="543" clip-path="url(#clipPath51)" stroke="none" stroke-width="2.1" xml:space="preserve">oeChooseMedia("3")</text>
      <line clip-path="url(#clipPath52)" fill="none" x1="64" x2="57" y1="544" y2="547" stroke="rgb(136,136,136)" stroke-width="2.1" />
      <line clip-path="url(#clipPath52)" fill="none" x1="57" x2="64" y1="547" y2="550" stroke="rgb(136,136,136)" stroke-width="2.1" />
      <line clip-path="url(#clipPath40)" fill="none" x1="430" x2="57" y1="637" y2="637" stroke="rgb(136,136,136)" stroke-width="2.1" />
      <text x="192" y="633" clip-path="url(#clipPath53)" stroke="none" stroke-width="2.1" xml:space="preserve">oeSendToMedia()</text>
      <line clip-path="url(#clipPath54)" fill="none" x1="64" x2="57" y1="634" y2="637" stroke="rgb(136,136,136)" stroke-width="2.1" />
      <line clip-path="url(#clipPath54)" fill="none" x1="57" x2="64" y1="637" y2="640" stroke="rgb(136,136,136)" stroke-width="2.1" />
      <line clip-path="url(#clipPath40)" fill="none" x1="430" x2="57" y1="728" y2="728" stroke="rgb(136,136,136)" stroke-width="2.1" />
      <text x="192" y="724" clip-path="url(#clipPath55)" stroke="none" stroke-width="2.1" xml:space="preserve">oeCloseCrisis("1")</text>
      <line clip-path="url(#clipPath56)" fill="none" x1="64" x2="57" y1="725" y2="728" stroke="rgb(136,136,136)" stroke-width="2.1" />
      <line clip-path="url(#clipPath56)" fill="none" x1="57" x2="64" y1="728" y2="731" stroke="rgb(136,136,136)" stroke-width="2.1" />
    </g>
    <g stroke-linecap="butt" font-size="13" fill="rgb(136,136,136)" font-family="'Segoe UI'" stroke-dasharray="5,5" stroke="rgb(136,136,136)" stroke-width="2.1">
      <line clip-path="url(#clipPath40)" fill="none" x1="430" x2="57" y1="142" y2="142" />
      <text x="86" y="138" clip-path="url(#clipPath57)" fill="black" stroke="none" xml:space="preserve">ieMessage(You're now consider as handling the crisis)</text>
      <line clip-path="url(#clipPath58)" fill="none" x1="423" x2="430" y1="145" y2="142" stroke-dasharray="none" />
      <line clip-path="url(#clipPath58)" fill="none" x1="430" x2="423" y1="142" y2="139" stroke-dasharray="none" />
      <line clip-path="url(#clipPath40)" fill="none" x1="430" x2="57" y1="232" y2="232" />
      <text x="108" y="228" clip-path="url(#clipPath59)" fill="black" stroke="none" xml:space="preserve">ieMessage(The Alert is now declared as valid!)</text>
      <line clip-path="url(#clipPath60)" fill="none" x1="423" x2="430" y1="235" y2="232" stroke-dasharray="none" />
      <line clip-path="url(#clipPath60)" fill="none" x1="430" x2="423" y1="232" y2="229" stroke-dasharray="none" />
      <line clip-path="url(#clipPath40)" fill="none" x1="430" x2="57" y1="322" y2="322" />
      <text x="105" y="318" clip-path="url(#clipPath61)" fill="black" stroke="none" xml:space="preserve">ieMessage(The crisis status has been updated!)</text>
      <line clip-path="url(#clipPath62)" fill="none" x1="423" x2="430" y1="325" y2="322" stroke-dasharray="none" />
      <line clip-path="url(#clipPath62)" fill="none" x1="430" x2="423" y1="322" y2="319" stroke-dasharray="none" />
      <line clip-path="url(#clipPath40)" fill="none" x1="430" x2="57" y1="412" y2="412" />
      <text x="95" y="408" clip-path="url(#clipPath63)" fill="black" stroke="none" xml:space="preserve">ieMessage(The crisis comment has been updated!)</text>
      <line clip-path="url(#clipPath64)" fill="none" x1="423" x2="430" y1="415" y2="412" stroke-dasharray="none" />
      <line clip-path="url(#clipPath64)" fill="none" x1="430" x2="423" y1="412" y2="409" stroke-dasharray="none" />
      <line clip-path="url(#clipPath40)" fill="none" x1="430" x2="57" y1="502" y2="502" />
      <text x="91" y="498" clip-path="url(#clipPath65)" fill="black" stroke="none" xml:space="preserve">ieMessage(The crisis with ID 1 is chosen for sharing)</text>
      <line clip-path="url(#clipPath66)" fill="none" x1="423" x2="430" y1="505" y2="502" stroke-dasharray="none" />
      <line clip-path="url(#clipPath66)" fill="none" x1="430" x2="423" y1="502" y2="499" stroke-dasharray="none" />
      <line clip-path="url(#clipPath40)" fill="none" x1="430" x2="57" y1="592" y2="592" />
      <text x="121" y="588" clip-path="url(#clipPath67)" fill="black" stroke="none" xml:space="preserve">ieMessage(The media with ID 3 is chosen)</text>
      <line clip-path="url(#clipPath68)" fill="none" x1="423" x2="430" y1="595" y2="592" stroke-dasharray="none" />
      <line clip-path="url(#clipPath68)" fill="none" x1="430" x2="423" y1="592" y2="589" stroke-dasharray="none" />
      <line clip-path="url(#clipPath40)" fill="none" x1="430" x2="57" y1="682" y2="682" />
      <text x="126" y="678" clip-path="url(#clipPath69)" fill="black" stroke="none" xml:space="preserve">ieMessage(The crisis 1 sent to media 3!)</text>
      <line clip-path="url(#clipPath70)" fill="none" x1="423" x2="430" y1="685" y2="682" stroke-dasharray="none" />
      <line clip-path="url(#clipPath70)" fill="none" x1="430" x2="423" y1="682" y2="679" stroke-dasharray="none" />
      <line clip-path="url(#clipPath40)" fill="none" x1="430" x2="57" y1="773" y2="773" />
      <text x="137" y="769" clip-path="url(#clipPath71)" fill="black" stroke="none" xml:space="preserve">ieMessage(The crisis is now closed!)</text>
      <line clip-path="url(#clipPath72)" fill="none" x1="423" x2="430" y1="776" y2="773" stroke-dasharray="none" />
      <line clip-path="url(#clipPath72)" fill="none" x1="430" x2="423" y1="773" y2="770" stroke-dasharray="none" />
    </g>
  </g>
</svg>

